<svg width="363" height="363" viewBox="0 0 363 363" fill="none" xmlns="http://www.w3.org/2000/svg">
<g clip-path="url(#clip0_20_3)">
<mask id="path-1-inside-1_20_3" fill="white">
<path d="M86.6664 242.936C86.2489 189.608 137.339 147.028 137.036 108.267C136.733 69.5051 156.456 61.5313 181.765 61.3335C207.073 61.1357 233.679 68.7465 233.983 107.508C234.287 146.269 279.277 188.097 279.694 241.425C279.984 278.368 237.007 308.655 183.704 309.073C130.401 309.49 86.9552 279.88 86.6664 242.936Z"/>
</mask>
<path d="M86.6664 242.936C86.2489 189.608 137.339 147.028 137.036 108.267C136.733 69.5051 156.456 61.5313 181.765 61.3335C207.073 61.1357 233.679 68.7465 233.983 107.508C234.287 146.269 279.277 188.097 279.694 241.425C279.984 278.368 237.007 308.655 183.704 309.073C130.401 309.49 86.9552 279.88 86.6664 242.936Z" fill="#09CC7F" stroke="#09CC7F" stroke-width="300" mask="url(#path-1-inside-1_20_3)"/>
<path d="M221.073 110.314C223.118 108.237 224.231 105.281 223.852 102.163C222.637 92.1707 218.025 82.487 210.866 74.8947C207.112 70.9136 200.842 70.7293 196.861 74.4832C192.881 78.2402 192.696 84.5072 196.45 88.4883C200.728 93.0253 203.474 98.7312 204.182 104.554C204.843 109.986 209.781 113.854 215.213 113.193C217.437 112.927 219.504 111.912 221.073 110.314Z" fill="#D9EDDF"/>
</g>
<defs>
<clipPath id="clip0_20_3">
<rect width="256" height="256" fill="white" transform="matrix(-0.701549 0.712621 0.712621 0.701549 179.597 0)"/>
</clipPath>
</defs>
</svg>
