<svg width="363" height="363" viewBox="0 0 363 363" fill="none" xmlns="http://www.w3.org/2000/svg">
<g clip-path="url(#clip0_20_3)">
<path d="M184.946 193.371C181.917 198.739 179.09 203.568 176.899 207.397C170.547 218.493 166.786 226.045 164.589 231.339C169.122 232.869 175.357 234.136 183.117 234.075C191.407 234.01 197.932 232.459 202.498 230.72C200.439 224.516 196.673 216.042 190.149 203.401C188.662 200.52 186.878 197.115 184.946 193.371Z" fill="#09CC7F" stroke="#09CC7F" stroke-width="150"/>
<path d="M221.073 110.314C223.118 108.237 224.231 105.281 223.852 102.163C222.637 92.1707 218.025 82.487 210.866 74.8947C207.112 70.9136 200.842 70.7293 196.861 74.4832C192.881 78.2402 192.696 84.5072 196.45 88.4883C200.728 93.0253 203.474 98.7312 204.182 104.554C204.843 109.986 209.781 113.854 215.213 113.193C217.437 112.927 219.504 111.912 221.073 110.314Z" fill="#D9EDDF"/>
</g>
<defs>
<clipPath id="clip0_20_3">
<rect width="256" height="256" fill="white" transform="matrix(-0.701549 0.712621 0.712621 0.701549 179.597 0)"/>
</clipPath>
</defs>
</svg>
